solid OpenSCAD_Model
  facet normal 0.866025 0.5 0
    outer loop
      vertex 8.22191 3.66063 15
      vertex 7.28115 5.29007 -15
      vertex 7.28115 5.29007 15
    endloop
  endfacet
  facet normal 0.866025 0.5 0
    outer loop
      vertex 7.28115 5.29007 -15
      vertex 8.22191 3.66063 15
      vertex 8.22191 3.66063 -15
    endloop
  endfacet
  facet normal 0 1 -0
    outer loop
      vertex 0.940756 8.9507 -15
      vertex -0.940756 8.9507 15
      vertex 0.940756 8.9507 15
    endloop
  endfacet
  facet normal 0 1 0
    outer loop
      vertex -0.940756 8.9507 15
      vertex 0.940756 8.9507 -15
      vertex -0.940756 8.9507 -15
    endloop
  endfacet
  facet normal -0.951056 0.309019 0
    outer loop
      vertex -8.22191 3.66063 -15
      vertex -8.2699 3.51294 -3.90151
      vertex -8.22191 3.66063 -3.73748
    endloop
  endfacet
  facet normal -0.95106 0.309007 -1.81746e-07
    outer loop
      vertex -8.22191 3.66063 -15
      vertex -8.28848 3.45573 -3.94307
      vertex -8.2699 3.51294 -3.90151
    endloop
  endfacet
  facet normal -0.951056 0.309017 3.42609e-08
    outer loop
      vertex -8.22191 3.66063 -15
      vertex -8.5584 2.625 -4.54663
      vertex -8.28848 3.45573 -3.94307
    endloop
  endfacet
  facet normal -0.951057 0.309017 0
    outer loop
      vertex -8.80333 1.8712 -4.88224
      vertex -8.22191 3.66063 -15
      vertex -8.80333 1.8712 -15
    endloop
  endfacet
  facet normal -0.951057 0.309017 1.49585e-08
    outer loop
      vertex -8.22191 3.66063 -15
      vertex -8.80333 1.8712 -4.88224
      vertex -8.5584 2.625 -4.54663
    endloop
  endfacet
  facet normal -0.951056 0.309019 0
    outer loop
      vertex -8.2699 3.51294 3.90151
      vertex -8.22191 3.66063 15
      vertex -8.22191 3.66063 3.73748
    endloop
  endfacet
  facet normal -0.95106 0.309007 1.81746e-07
    outer loop
      vertex -8.28848 3.45573 3.94307
      vertex -8.22191 3.66063 15
      vertex -8.2699 3.51294 3.90151
    endloop
  endfacet
  facet normal -0.951056 0.309017 -3.42609e-08
    outer loop
      vertex -8.5584 2.625 4.54663
      vertex -8.22191 3.66063 15
      vertex -8.28848 3.45573 3.94307
    endloop
  endfacet
  facet normal -0.951057 0.309017 -1.49585e-08
    outer loop
      vertex -8.80333 1.8712 4.88224
      vertex -8.22191 3.66063 15
      vertex -8.5584 2.625 4.54663
    endloop
  endfacet
  facet normal -0.951057 0.309017 0
    outer loop
      vertex -8.22191 3.66063 15
      vertex -8.80333 1.8712 4.88224
      vertex -8.80333 1.8712 15
    endloop
  endfacet
  facet normal 0.743145 0.669131 0
    outer loop
      vertex 7.28115 5.29007 15
      vertex 6.02217 6.6883 -15
      vertex 6.02217 6.6883 15
    endloop
  endfacet
  facet normal 0.743145 0.669131 0
    outer loop
      vertex 6.02217 6.6883 -15
      vertex 7.28115 5.29007 15
      vertex 7.28115 5.29007 -15
    endloop
  endfacet
  facet normal 0.207912 0.978148 -0
    outer loop
      vertex 2.78115 8.55951 -15
      vertex 0.940756 8.9507 15
      vertex 2.78115 8.55951 15
    endloop
  endfacet
  facet normal 0.207912 0.978148 0
    outer loop
      vertex 0.940756 8.9507 15
      vertex 2.78115 8.55951 -15
      vertex 0.940756 8.9507 -15
    endloop
  endfacet
  facet normal -0.406737 0.913545 0
    outer loop
      vertex -2.78115 8.55951 -15
      vertex -4.5 7.79423 15
      vertex -2.78115 8.55951 15
    endloop
  endfacet
  facet normal -0.406737 0.913545 0
    outer loop
      vertex -4.5 7.79423 15
      vertex -2.78115 8.55951 -15
      vertex -4.5 7.79423 -15
    endloop
  endfacet
  facet normal 0.994522 -0.104529 0
    outer loop
      vertex 8.80333 -1.8712 15
      vertex 9 0 -15
      vertex 9 0 15
    endloop
  endfacet
  facet normal 0.994522 -0.104529 0
    outer loop
      vertex 9 0 -15
      vertex 8.80333 -1.8712 15
      vertex 8.80333 -1.8712 -15
    endloop
  endfacet
  facet normal 0.207912 -0.978148 0
    outer loop
      vertex 0.940756 -8.9507 -15
      vertex 2.78115 -8.55951 15
      vertex 0.940756 -8.9507 15
    endloop
  endfacet
  facet normal 0.207912 -0.978148 0
    outer loop
      vertex 2.78115 -8.55951 15
      vertex 0.940756 -8.9507 -15
      vertex 2.78115 -8.55951 -15
    endloop
  endfacet
  facet normal 0.587786 0.809017 -0
    outer loop
      vertex 6.02217 6.6883 -15
      vertex 4.5 7.79423 15
      vertex 6.02217 6.6883 15
    endloop
  endfacet
  facet normal 0.587786 0.809017 0
    outer loop
      vertex 4.5 7.79423 15
      vertex 6.02217 6.6883 -15
      vertex 4.5 7.79423 -15
    endloop
  endfacet
  facet normal 0.406736 0.913546 -0
    outer loop
      vertex 4.5 7.79423 -15
      vertex 2.78115 8.55951 15
      vertex 4.5 7.79423 15
    endloop
  endfacet
  facet normal 0.406736 0.913546 0
    outer loop
      vertex 2.78115 8.55951 15
      vertex 4.5 7.79423 -15
      vertex 2.78115 8.55951 -15
    endloop
  endfacet
  facet normal -0.994522 0.104527 0
    outer loop
      vertex -8.80333 1.8712 -15
      vertex -8.81989 1.71358 -4.95242
      vertex -8.80333 1.8712 -4.88224
    endloop
  endfacet
  facet normal -0.994521 0.104537 1.54401e-07
    outer loop
      vertex -8.80333 1.8712 -15
      vertex -8.82948 1.62234 -4.99305
      vertex -8.81989 1.71358 -4.95242
    endloop
  endfacet
  facet normal -0.994522 0.104528 -5.61856e-08
    outer loop
      vertex -8.80333 1.8712 -15
      vertex -8.94232 0.548774 -5.22124
      vertex -8.82948 1.62234 -4.99305
    endloop
  endfacet
  facet normal -0.994522 0.104529 4.63028e-08
    outer loop
      vertex -9 0 -15
      vertex -8.94232 0.548774 -5.22124
      vertex -8.80333 1.8712 -15
    endloop
  endfacet
  facet normal -0.994522 0.10453 0
    outer loop
      vertex -8.94232 0.548774 -5.22124
      vertex -9 0 -15
      vertex -9 0 -5.22124
    endloop
  endfacet
  facet normal -0.994522 0.104527 0
    outer loop
      vertex -8.81989 1.71358 4.95242
      vertex -8.80333 1.8712 15
      vertex -8.80333 1.8712 4.88224
    endloop
  endfacet
  facet normal -0.994521 0.104537 -1.54401e-07
    outer loop
      vertex -8.82948 1.62234 4.99305
      vertex -8.80333 1.8712 15
      vertex -8.81989 1.71358 4.95242
    endloop
  endfacet
  facet normal -0.994522 0.104528 5.61856e-08
    outer loop
      vertex -8.94232 0.548774 5.22124
      vertex -8.80333 1.8712 15
      vertex -8.82948 1.62234 4.99305
    endloop
  endfacet
  facet normal -0.994522 0.10453 0
    outer loop
      vertex -9 0 15
      vertex -8.94232 0.548774 5.22124
      vertex -9 0 5.22124
    endloop
  endfacet
  facet normal -0.994522 0.104529 -4.63028e-08
    outer loop
      vertex -8.94232 0.548774 5.22124
      vertex -9 0 15
      vertex -8.80333 1.8712 15
    endloop
  endfacet
  facet normal -0.866024 0.500003 0
    outer loop
      vertex -7.28115 5.29007 -15
      vertex -7.30429 5.25 0
      vertex -7.28115 5.29007 15
    endloop
  endfacet
  facet normal -0.866025 0.5 -9.55423e-09
    outer loop
      vertex -7.28115 5.29007 -15
      vertex -7.3693 5.13739 -1.07138
      vertex -7.30429 5.25 0
    endloop
  endfacet
  facet normal -0.866038 0.499978 -3.38842e-07
    outer loop
      vertex -7.28115 5.29007 -15
      vertex -7.37052 5.13527 -1.09154
      vertex -7.3693 5.13739 -1.07138
    endloop
  endfacet
  facet normal -0.866026 0.5 -1.4593e-08
    outer loop
      vertex -7.28115 5.29007 -15
      vertex -7.56634 4.79611 -2.13537
      vertex -7.37052 5.13527 -1.09154
    endloop
  endfacet
  facet normal -0.866026 0.5 -2.23267e-08
    outer loop
      vertex -7.28115 5.29007 -15
      vertex -7.88317 4.24734 -3.08587
      vertex -7.56634 4.79611 -2.13537
    endloop
  endfacet
  facet normal -0.866025 0.5 0
    outer loop
      vertex -8.22191 3.66063 -3.73748
      vertex -7.28115 5.29007 -15
      vertex -8.22191 3.66063 -15
    endloop
  endfacet
  facet normal -0.866025 0.5 5.81401e-09
    outer loop
      vertex -7.28115 5.29007 -15
      vertex -8.22191 3.66063 -3.73748
      vertex -7.88317 4.24734 -3.08587
    endloop
  endfacet
  facet normal -0.866025 0.5 9.55423e-09
    outer loop
      vertex -7.3693 5.13739 1.07138
      vertex -7.28115 5.29007 15
      vertex -7.30429 5.25 0
    endloop
  endfacet
  facet normal -0.866038 0.499978 3.38842e-07
    outer loop
      vertex -7.37052 5.13527 1.09154
      vertex -7.28115 5.29007 15
      vertex -7.3693 5.13739 1.07138
    endloop
  endfacet
  facet normal -0.866026 0.5 1.4593e-08
    outer loop
      vertex -7.56634 4.79611 2.13537
      vertex -7.28115 5.29007 15
      vertex -7.37052 5.13527 1.09154
    endloop
  endfacet
  facet normal -0.866026 0.5 2.23267e-08
    outer loop
      vertex -7.88317 4.24734 3.08587
      vertex -7.28115 5.29007 15
      vertex -7.56634 4.79611 2.13537
    endloop
  endfacet
  facet normal -0.866025 0.5 -5.81401e-09
    outer loop
      vertex -8.22191 3.66063 3.73748
      vertex -7.28115 5.29007 15
      vertex -7.88317 4.24734 3.08587
    endloop
  endfacet
  facet normal -0.866025 0.5 0
    outer loop
      vertex -7.28115 5.29007 15
      vertex -8.22191 3.66063 3.73748
      vertex -8.22191 3.66063 15
    endloop
  endfacet
  facet normal -0.587785 0.809017 0
    outer loop
      vertex -4.5 7.79423 -15
      vertex -6.02217 6.6883 15
      vertex -4.5 7.79423 15
    endloop
  endfacet
  facet normal -0.587785 0.809017 0
    outer loop
      vertex -6.02217 6.6883 15
      vertex -4.5 7.79423 -15
      vertex -6.02217 6.6883 -15
    endloop
  endfacet
  facet normal -0.207912 0.978148 0
    outer loop
      vertex -0.940756 8.9507 -15
      vertex -2.78115 8.55951 15
      vertex -0.940756 8.9507 15
    endloop
  endfacet
  facet normal -0.207912 0.978148 0
    outer loop
      vertex -2.78115 8.55951 15
      vertex -0.940756 8.9507 -15
      vertex -2.78115 8.55951 -15
    endloop
  endfacet
  facet normal -0.743145 0.669131 0
    outer loop
      vertex -7.28115 5.29007 -15
      vertex -6.02217 6.6883 15
      vertex -6.02217 6.6883 -15
    endloop
  endfacet
  facet normal -0.743145 0.669131 0
    outer loop
      vertex -6.02217 6.6883 15
      vertex -7.28115 5.29007 -15
      vertex -7.28115 5.29007 15
    endloop
  endfacet
  facet normal 0.994522 0.104529 0
    outer loop
      vertex 9 0 15
      vertex 8.80333 1.8712 -15
      vertex 8.80333 1.8712 15
    endloop
  endfacet
  facet normal 0.994522 0.104529 0
    outer loop
      vertex 8.80333 1.8712 -15
      vertex 9 0 15
      vertex 9 0 -15
    endloop
  endfacet
  facet normal 0.951057 -0.309017 0
    outer loop
      vertex 8.22191 -3.66063 15
      vertex 8.80333 -1.8712 -15
      vertex 8.80333 -1.8712 15
    endloop
  endfacet
  facet normal 0.951057 -0.309017 0
    outer loop
      vertex 8.80333 -1.8712 -15
      vertex 8.22191 -3.66063 15
      vertex 8.22191 -3.66063 -15
    endloop
  endfacet
  facet normal -0.866025 -0.5 0
    outer loop
      vertex -7.28115 -5.29007 -15
      vertex -8.22191 -3.66063 -3.73748
      vertex -8.22191 -3.66063 -15
    endloop
  endfacet
  facet normal -0.866025 -0.5 5.81401e-09
    outer loop
      vertex -8.22191 -3.66063 -3.73748
      vertex -7.28115 -5.29007 -15
      vertex -7.88317 -4.24734 -3.08587
    endloop
  endfacet
  facet normal -0.866026 -0.5 -2.23267e-08
    outer loop
      vertex -7.88317 -4.24734 -3.08587
      vertex -7.28115 -5.29007 -15
      vertex -7.56634 -4.79611 -2.13537
    endloop
  endfacet
  facet normal -0.511773 -0.857091 -0.0590284
    outer loop
      vertex -7.37052 -5.13527 -1.09154
      vertex -7.30429 -5.25 0
      vertex -7.3053 -5.24825 -0.0166621
    endloop
  endfacet
  facet normal -0.866024 -0.500002 1.94703e-08
    outer loop
      vertex -7.37052 -5.13527 -1.09154
      vertex -7.28115 -5.29007 -15
      vertex -7.30429 -5.25 0
    endloop
  endfacet
  facet normal -0.866026 -0.5 -1.4593e-08
    outer loop
      vertex -7.56634 -4.79611 -2.13537
      vertex -7.28115 -5.29007 -15
      vertex -7.37052 -5.13527 -1.09154
    endloop
  endfacet
  facet normal -0.866025 -0.5 -5.81401e-09
    outer loop
      vertex -7.28115 -5.29007 15
      vertex -8.22191 -3.66063 3.73748
      vertex -7.88317 -4.24734 3.08587
    endloop
  endfacet
  facet normal -0.866026 -0.5 2.23267e-08
    outer loop
      vertex -7.28115 -5.29007 15
      vertex -7.88317 -4.24734 3.08587
      vertex -7.56634 -4.79611 2.13537
    endloop
  endfacet
  facet normal -0.866026 -0.5 1.4593e-08
    outer loop
      vertex -7.28115 -5.29007 15
      vertex -7.56634 -4.79611 2.13537
      vertex -7.37052 -5.13527 1.09154
    endloop
  endfacet
  facet normal -0.511773 -0.857091 0.0590284
    outer loop
      vertex -7.30429 -5.25 0
      vertex -7.37052 -5.13527 1.09154
      vertex -7.3053 -5.24825 0.0166621
    endloop
  endfacet
  facet normal -0.866025 -0.5 0
    outer loop
      vertex -8.22191 -3.66063 3.73748
      vertex -7.28115 -5.29007 15
      vertex -8.22191 -3.66063 15
    endloop
  endfacet
  facet normal -0.866024 -0.500002 -1.94703e-08
    outer loop
      vertex -7.30429 -5.25 0
      vertex -7.28115 -5.29007 15
      vertex -7.37052 -5.13527 1.09154
    endloop
  endfacet
  facet normal -0.866027 -0.499997 -0
    outer loop
      vertex -7.28115 -5.29007 15
      vertex -7.30429 -5.25 0
      vertex -7.28115 -5.29007 -15
    endloop
  endfacet
  facet normal 0.587786 -0.809017 0
    outer loop
      vertex 4.5 -7.79423 -15
      vertex 6.02217 -6.6883 15
      vertex 4.5 -7.79423 15
    endloop
  endfacet
  facet normal 0.587786 -0.809017 0
    outer loop
      vertex 6.02217 -6.6883 15
      vertex 4.5 -7.79423 -15
      vertex 6.02217 -6.6883 -15
    endloop
  endfacet
  facet normal 0.951057 0.309017 0
    outer loop
      vertex 8.80333 1.8712 15
      vertex 8.22191 3.66063 -15
      vertex 8.22191 3.66063 15
    endloop
  endfacet
  facet normal 0.951057 0.309017 0
    outer loop
      vertex 8.22191 3.66063 -15
      vertex 8.80333 1.8712 15
      vertex 8.80333 1.8712 -15
    endloop
  endfacet
  facet normal 0 0 1
    outer loop
      vertex 6.5 0 15
      vertex 9 0 15
      vertex 8.80333 1.8712 15
    endloop
  endfacet
  facet normal 0 0 1
    outer loop
      vertex 6.35796 1.35143 15
      vertex 8.80333 1.8712 15
      vertex 8.22191 3.66063 15
    endloop
  endfacet
  facet normal 0 0 1
    outer loop
      vertex 9 0 15
      vertex 6.5 0 15
      vertex 8.80333 -1.8712 15
    endloop
  endfacet
  facet normal 0 0 1
    outer loop
      vertex 5.93804 2.64379 15
      vertex 8.22191 3.66063 15
      vertex 7.28115 5.29007 15
    endloop
  endfacet
  facet normal -0 0 1
    outer loop
      vertex 6.35796 -1.35143 15
      vertex 8.80333 -1.8712 15
      vertex 6.5 0 15
    endloop
  endfacet
  facet normal 0 0 1
    outer loop
      vertex 8.80333 -1.8712 15
      vertex 6.35796 -1.35143 15
      vertex 8.22191 -3.66063 15
    endloop
  endfacet
  facet normal 0 0 1
    outer loop
      vertex 8.80333 1.8712 15
      vertex 6.35796 1.35143 15
      vertex 6.5 0 15
    endloop
  endfacet
  facet normal 0 0 1
    outer loop
      vertex 5.25861 3.8206 15
      vertex 7.28115 5.29007 15
      vertex 6.02217 6.6883 15
    endloop
  endfacet
  facet normal 0 0 1
    outer loop
      vertex 8.22191 3.66063 15
      vertex 5.93804 2.64379 15
      vertex 6.35796 1.35143 15
    endloop
  endfacet
  facet normal 0 0 1
    outer loop
      vertex 7.28115 5.29007 15
      vertex 5.25861 3.8206 15
      vertex 5.93804 2.64379 15
    endloop
  endfacet
  facet normal 0 0 1
    outer loop
      vertex 4.34935 4.83044 15
      vertex 6.02217 6.6883 15
      vertex 4.5 7.79423 15
    endloop
  endfacet
  facet normal 0 0 1
    outer loop
      vertex 6.02217 6.6883 15
      vertex 4.34935 4.83044 15
      vertex 5.25861 3.8206 15
    endloop
  endfacet
  facet normal 0 0 1
    outer loop
      vertex 4.5 7.79423 15
      vertex 3.25 5.62916 15
      vertex 4.34935 4.83044 15
    endloop
  endfacet
  facet normal 0 0 1
    outer loop
      vertex 2.78115 8.55951 15
      vertex 3.25 5.62916 15
      vertex 4.5 7.79423 15
    endloop
  endfacet
  facet normal 0 0 1
    outer loop
      vertex 2.78115 8.55951 15
      vertex 2.00861 6.18187 15
      vertex 3.25 5.62916 15
    endloop
  endfacet
  facet normal 0 0 1
    outer loop
      vertex 0.940756 8.9507 15
      vertex 2.00861 6.18187 15
      vertex 2.78115 8.55951 15
    endloop
  endfacet
  facet normal 0 0 1
    outer loop
      vertex 0.940756 8.9507 15
      vertex 0.679435 6.46439 15
      vertex 2.00861 6.18187 15
    endloop
  endfacet
  facet normal 0 0 1
    outer loop
      vertex 0.940756 8.9507 15
      vertex -0.679435 6.46439 15
      vertex 0.679435 6.46439 15
    endloop
  endfacet
  facet normal -0 0 1
    outer loop
      vertex -0.940756 8.9507 15
      vertex -0.679435 6.46439 15
      vertex 0.940756 8.9507 15
    endloop
  endfacet
  facet normal 0 0 1
    outer loop
      vertex -0.940756 8.9507 15
      vertex -2.00861 6.18187 15
      vertex -0.679435 6.46439 15
    endloop
  endfacet
  facet normal -0 0 1
    outer loop
      vertex -2.78115 8.55951 15
      vertex -2.00861 6.18187 15
      vertex -0.940756 8.9507 15
    endloop
  endfacet
  facet normal 0 0 1
    outer loop
      vertex -2.78115 8.55951 15
      vertex -3.25 5.62916 15
      vertex -2.00861 6.18187 15
    endloop
  endfacet
  facet normal -0 0 1
    outer loop
      vertex -4.5 7.79423 15
      vertex -3.25 5.62916 15
      vertex -2.78115 8.55951 15
    endloop
  endfacet
  facet normal 0 0 1
    outer loop
      vertex -3.25 5.62916 15
      vertex -4.5 7.79423 15
      vertex -4.34935 4.83044 15
    endloop
  endfacet
  facet normal -0 0 1
    outer loop
      vertex -6.02217 6.6883 15
      vertex -4.34935 4.83044 15
      vertex -4.5 7.79423 15
    endloop
  endfacet
  facet normal 0 0 1
    outer loop
      vertex -4.34935 4.83044 15
      vertex -6.02217 6.6883 15
      vertex -5.25861 3.8206 15
    endloop
  endfacet
  facet normal -0 0 1
    outer loop
      vertex -7.28115 5.29007 15
      vertex -5.25861 3.8206 15
      vertex -6.02217 6.6883 15
    endloop
  endfacet
  facet normal 0 0 1
    outer loop
      vertex -5.25861 3.8206 15
      vertex -7.28115 5.29007 15
      vertex -5.93804 2.64379 15
    endloop
  endfacet
  facet normal -0 0 1
    outer loop
      vertex -8.22191 3.66063 15
      vertex -5.93804 2.64379 15
      vertex -7.28115 5.29007 15
    endloop
  endfacet
  facet normal 0 0 1
    outer loop
      vertex -5.93804 2.64379 15
      vertex -8.22191 3.66063 15
      vertex -6.35796 1.35143 15
    endloop
  endfacet
  facet normal -0 0 1
    outer loop
      vertex 5.93804 -2.64379 15
      vertex 8.22191 -3.66063 15
      vertex 6.35796 -1.35143 15
    endloop
  endfacet
  facet normal 0 0 1
    outer loop
      vertex 8.22191 -3.66063 15
      vertex 5.93804 -2.64379 15
      vertex 7.28115 -5.29007 15
    endloop
  endfacet
  facet normal -0 0 1
    outer loop
      vertex 5.25861 -3.8206 15
      vertex 7.28115 -5.29007 15
      vertex 5.93804 -2.64379 15
    endloop
  endfacet
  facet normal 0 0 1
    outer loop
      vertex 7.28115 -5.29007 15
      vertex 5.25861 -3.8206 15
      vertex 6.02217 -6.6883 15
    endloop
  endfacet
  facet normal -0 0 1
    outer loop
      vertex 4.34935 -4.83044 15
      vertex 6.02217 -6.6883 15
      vertex 5.25861 -3.8206 15
    endloop
  endfacet
  facet normal 0 0 1
    outer loop
      vertex 6.02217 -6.6883 15
      vertex 4.34935 -4.83044 15
      vertex 4.5 -7.79423 15
    endloop
  endfacet
  facet normal -0 0 1
    outer loop
      vertex 3.25 -5.62916 15
      vertex 4.5 -7.79423 15
      vertex 4.34935 -4.83044 15
    endloop
  endfacet
  facet normal 0 0 1
    outer loop
      vertex 3.25 -5.62916 15
      vertex 2.78115 -8.55951 15
      vertex 4.5 -7.79423 15
    endloop
  endfacet
  facet normal -0 0 1
    outer loop
      vertex 2.00861 -6.18187 15
      vertex 2.78115 -8.55951 15
      vertex 3.25 -5.62916 15
    endloop
  endfacet
  facet normal 0 0 1
    outer loop
      vertex 2.00861 -6.18187 15
      vertex 0.940756 -8.9507 15
      vertex 2.78115 -8.55951 15
    endloop
  endfacet
  facet normal -0 0 1
    outer loop
      vertex 0.679435 -6.46439 15
      vertex 0.940756 -8.9507 15
      vertex 2.00861 -6.18187 15
    endloop
  endfacet
  facet normal -0 0 1
    outer loop
      vertex -0.679435 -6.46439 15
      vertex 0.940756 -8.9507 15
      vertex 0.679435 -6.46439 15
    endloop
  endfacet
  facet normal 0 0 1
    outer loop
      vertex -0.679435 -6.46439 15
      vertex -0.940756 -8.9507 15
      vertex 0.940756 -8.9507 15
    endloop
  endfacet
  facet normal 0 0 1
    outer loop
      vertex -2.00861 -6.18187 15
      vertex -0.940756 -8.9507 15
      vertex -0.679435 -6.46439 15
    endloop
  endfacet
  facet normal 0 0 1
    outer loop
      vertex -2.00861 -6.18187 15
      vertex -2.78115 -8.55951 15
      vertex -0.940756 -8.9507 15
    endloop
  endfacet
  facet normal 0 0 1
    outer loop
      vertex -3.25 -5.62916 15
      vertex -2.78115 -8.55951 15
      vertex -2.00861 -6.18187 15
    endloop
  endfacet
  facet normal 0 0 1
    outer loop
      vertex -4.5 -7.79423 15
      vertex -3.25 -5.62916 15
      vertex -4.34935 -4.83044 15
    endloop
  endfacet
  facet normal 0 0 1
    outer loop
      vertex -3.25 -5.62916 15
      vertex -4.5 -7.79423 15
      vertex -2.78115 -8.55951 15
    endloop
  endfacet
  facet normal 0 0 1
    outer loop
      vertex -6.02217 -6.6883 15
      vertex -4.34935 -4.83044 15
      vertex -5.25861 -3.8206 15
    endloop
  endfacet
  facet normal 0 0 1
    outer loop
      vertex -7.28115 -5.29007 15
      vertex -5.25861 -3.8206 15
      vertex -5.93804 -2.64379 15
    endloop
  endfacet
  facet normal 0 0 1
    outer loop
      vertex -4.34935 -4.83044 15
      vertex -6.02217 -6.6883 15
      vertex -4.5 -7.79423 15
    endloop
  endfacet
  facet normal 0 0 1
    outer loop
      vertex -8.22191 -3.66063 15
      vertex -5.93804 -2.64379 15
      vertex -6.35796 -1.35143 15
    endloop
  endfacet
  facet normal 0 0 1
    outer loop
      vertex -8.80333 -1.8712 15
      vertex -6.35796 -1.35143 15
      vertex -6.5 0 15
    endloop
  endfacet
  facet normal -0 0 1
    outer loop
      vertex -8.80333 1.8712 15
      vertex -6.35796 1.35143 15
      vertex -8.22191 3.66063 15
    endloop
  endfacet
  facet normal 0 0 1
    outer loop
      vertex -5.25861 -3.8206 15
      vertex -7.28115 -5.29007 15
      vertex -6.02217 -6.6883 15
    endloop
  endfacet
  facet normal 0 0 1
    outer loop
      vertex -6.35796 1.35143 15
      vertex -8.80333 1.8712 15
      vertex -6.5 0 15
    endloop
  endfacet
  facet normal 0 0 1
    outer loop
      vertex -5.93804 -2.64379 15
      vertex -8.22191 -3.66063 15
      vertex -7.28115 -5.29007 15
    endloop
  endfacet
  facet normal 0 0 1
    outer loop
      vertex -9 0 15
      vertex -6.5 0 15
      vertex -8.80333 1.8712 15
    endloop
  endfacet
  facet normal 0 0 1
    outer loop
      vertex -6.35796 -1.35143 15
      vertex -8.80333 -1.8712 15
      vertex -8.22191 -3.66063 15
    endloop
  endfacet
  facet normal 0 0 1
    outer loop
      vertex -6.5 0 15
      vertex -9 0 15
      vertex -8.80333 -1.8712 15
    endloop
  endfacet
  facet normal 0.866025 -0.5 0
    outer loop
      vertex 7.28115 -5.29007 15
      vertex 8.22191 -3.66063 -15
      vertex 8.22191 -3.66063 15
    endloop
  endfacet
  facet normal 0.866025 -0.5 0
    outer loop
      vertex 8.22191 -3.66063 -15
      vertex 7.28115 -5.29007 15
      vertex 7.28115 -5.29007 -15
    endloop
  endfacet
  facet normal -0.994522 -0.10453 0
    outer loop
      vertex -9 0 -15
      vertex -8.94232 -0.548774 -5.22124
      vertex -9 0 -5.22124
    endloop
  endfacet
  facet normal -0.994522 -0.104529 4.63028e-08
    outer loop
      vertex -8.80333 -1.8712 -15
      vertex -8.94232 -0.548774 -5.22124
      vertex -9 0 -15
    endloop
  endfacet
  facet normal -0.994522 -0.104528 -5.61856e-08
    outer loop
      vertex -8.94232 -0.548774 -5.22124
      vertex -8.80333 -1.8712 -15
      vertex -8.82948 -1.62234 -4.99305
    endloop
  endfacet
  facet normal -0.994522 -0.10453 0
    outer loop
      vertex -8.82948 -1.62234 -4.99305
      vertex -8.80333 -1.8712 -15
      vertex -8.80333 -1.8712 -4.88224
    endloop
  endfacet
  facet normal -0.994522 -0.10453 0
    outer loop
      vertex -8.94232 -0.548774 5.22124
      vertex -9 0 15
      vertex -9 0 5.22124
    endloop
  endfacet
  facet normal -0.994522 -0.104528 5.61856e-08
    outer loop
      vertex -8.80333 -1.8712 15
      vertex -8.94232 -0.548774 5.22124
      vertex -8.82948 -1.62234 4.99305
    endloop
  endfacet
  facet normal -0.994522 -0.10453 -0
    outer loop
      vertex -8.80333 -1.8712 15
      vertex -8.82948 -1.62234 4.99305
      vertex -8.80333 -1.8712 4.88224
    endloop
  endfacet
  facet normal -0.994522 -0.104529 -4.63028e-08
    outer loop
      vertex -8.94232 -0.548774 5.22124
      vertex -8.80333 -1.8712 15
      vertex -9 0 15
    endloop
  endfacet
  facet normal 0.406736 -0.913546 0
    outer loop
      vertex 2.78115 -8.55951 -15
      vertex 4.5 -7.79423 15
      vertex 2.78115 -8.55951 15
    endloop
  endfacet
  facet normal 0.406736 -0.913546 0
    outer loop
      vertex 4.5 -7.79423 15
      vertex 2.78115 -8.55951 -15
      vertex 4.5 -7.79423 -15
    endloop
  endfacet
  facet normal -0.207912 -0.978148 0
    outer loop
      vertex -2.78115 -8.55951 -15
      vertex -0.940756 -8.9507 15
      vertex -2.78115 -8.55951 15
    endloop
  endfacet
  facet normal -0.207912 -0.978148 -0
    outer loop
      vertex -0.940756 -8.9507 15
      vertex -2.78115 -8.55951 -15
      vertex -0.940756 -8.9507 -15
    endloop
  endfacet
  facet normal 0 -1 0
    outer loop
      vertex -0.940756 -8.9507 -15
      vertex 0.940756 -8.9507 15
      vertex -0.940756 -8.9507 15
    endloop
  endfacet
  facet normal 0 -1 -0
    outer loop
      vertex 0.940756 -8.9507 15
      vertex -0.940756 -8.9507 -15
      vertex 0.940756 -8.9507 -15
    endloop
  endfacet
  facet normal 0 0 -1
    outer loop
      vertex 6.5 0 -15
      vertex 9 0 -15
      vertex 8.80333 -1.8712 -15
    endloop
  endfacet
  facet normal 0 0 -1
    outer loop
      vertex 6.35796 -1.35143 -15
      vertex 8.80333 -1.8712 -15
      vertex 8.22191 -3.66063 -15
    endloop
  endfacet
  facet normal 0 0 -1
    outer loop
      vertex 9 0 -15
      vertex 6.5 0 -15
      vertex 8.80333 1.8712 -15
    endloop
  endfacet
  facet normal 0 0 -1
    outer loop
      vertex 5.93804 -2.64379 -15
      vertex 8.22191 -3.66063 -15
      vertex 7.28115 -5.29007 -15
    endloop
  endfacet
  facet normal 0 0 -1
    outer loop
      vertex 6.35796 1.35143 -15
      vertex 8.80333 1.8712 -15
      vertex 6.5 0 -15
    endloop
  endfacet
  facet normal -0 0 -1
    outer loop
      vertex 8.80333 1.8712 -15
      vertex 6.35796 1.35143 -15
      vertex 8.22191 3.66063 -15
    endloop
  endfacet
  facet normal 0 0 -1
    outer loop
      vertex 8.80333 -1.8712 -15
      vertex 6.35796 -1.35143 -15
      vertex 6.5 0 -15
    endloop
  endfacet
  facet normal 0 0 -1
    outer loop
      vertex 5.25861 -3.8206 -15
      vertex 7.28115 -5.29007 -15
      vertex 6.02217 -6.6883 -15
    endloop
  endfacet
  facet normal 0 0 -1
    outer loop
      vertex 8.22191 -3.66063 -15
      vertex 5.93804 -2.64379 -15
      vertex 6.35796 -1.35143 -15
    endloop
  endfacet
  facet normal 0 0 -1
    outer loop
      vertex 7.28115 -5.29007 -15
      vertex 5.25861 -3.8206 -15
      vertex 5.93804 -2.64379 -15
    endloop
  endfacet
  facet normal 0 0 -1
    outer loop
      vertex 4.34935 -4.83044 -15
      vertex 6.02217 -6.6883 -15
      vertex 4.5 -7.79423 -15
    endloop
  endfacet
  facet normal 0 0 -1
    outer loop
      vertex 6.02217 -6.6883 -15
      vertex 4.34935 -4.83044 -15
      vertex 5.25861 -3.8206 -15
    endloop
  endfacet
  facet normal 0 0 -1
    outer loop
      vertex 4.5 -7.79423 -15
      vertex 3.25 -5.62916 -15
      vertex 4.34935 -4.83044 -15
    endloop
  endfacet
  facet normal 0 0 -1
    outer loop
      vertex 2.78115 -8.55951 -15
      vertex 3.25 -5.62916 -15
      vertex 4.5 -7.79423 -15
    endloop
  endfacet
  facet normal 0 0 -1
    outer loop
      vertex 2.78115 -8.55951 -15
      vertex 2.00861 -6.18187 -15
      vertex 3.25 -5.62916 -15
    endloop
  endfacet
  facet normal 0 0 -1
    outer loop
      vertex 0.940756 -8.9507 -15
      vertex 2.00861 -6.18187 -15
      vertex 2.78115 -8.55951 -15
    endloop
  endfacet
  facet normal 0 0 -1
    outer loop
      vertex 0.940756 -8.9507 -15
      vertex 0.679435 -6.46439 -15
      vertex 2.00861 -6.18187 -15
    endloop
  endfacet
  facet normal 0 0 -1
    outer loop
      vertex 0.940756 -8.9507 -15
      vertex -0.679435 -6.46439 -15
      vertex 0.679435 -6.46439 -15
    endloop
  endfacet
  facet normal 0 0 -1
    outer loop
      vertex -0.940756 -8.9507 -15
      vertex -0.679435 -6.46439 -15
      vertex 0.940756 -8.9507 -15
    endloop
  endfacet
  facet normal 0 0 -1
    outer loop
      vertex -0.940756 -8.9507 -15
      vertex -2.00861 -6.18187 -15
      vertex -0.679435 -6.46439 -15
    endloop
  endfacet
  facet normal 0 0 -1
    outer loop
      vertex -2.78115 -8.55951 -15
      vertex -2.00861 -6.18187 -15
      vertex -0.940756 -8.9507 -15
    endloop
  endfacet
  facet normal 0 0 -1
    outer loop
      vertex -2.78115 -8.55951 -15
      vertex -3.25 -5.62916 -15
      vertex -2.00861 -6.18187 -15
    endloop
  endfacet
  facet normal 0 0 -1
    outer loop
      vertex -4.5 -7.79423 -15
      vertex -3.25 -5.62916 -15
      vertex -2.78115 -8.55951 -15
    endloop
  endfacet
  facet normal -0 0 -1
    outer loop
      vertex -3.25 -5.62916 -15
      vertex -4.5 -7.79423 -15
      vertex -4.34935 -4.83044 -15
    endloop
  endfacet
  facet normal 0 0 -1
    outer loop
      vertex -6.02217 -6.6883 -15
      vertex -4.34935 -4.83044 -15
      vertex -4.5 -7.79423 -15
    endloop
  endfacet
  facet normal -0 0 -1
    outer loop
      vertex -4.34935 -4.83044 -15
      vertex -6.02217 -6.6883 -15
      vertex -5.25861 -3.8206 -15
    endloop
  endfacet
  facet normal 0 0 -1
    outer loop
      vertex -7.28115 -5.29007 -15
      vertex -5.25861 -3.8206 -15
      vertex -6.02217 -6.6883 -15
    endloop
  endfacet
  facet normal -0 0 -1
    outer loop
      vertex -5.25861 -3.8206 -15
      vertex -7.28115 -5.29007 -15
      vertex -5.93804 -2.64379 -15
    endloop
  endfacet
  facet normal 0 0 -1
    outer loop
      vertex -8.22191 -3.66063 -15
      vertex -5.93804 -2.64379 -15
      vertex -7.28115 -5.29007 -15
    endloop
  endfacet
  facet normal -0 0 -1
    outer loop
      vertex -5.93804 -2.64379 -15
      vertex -8.22191 -3.66063 -15
      vertex -6.35796 -1.35143 -15
    endloop
  endfacet
  facet normal 0 0 -1
    outer loop
      vertex 5.93804 2.64379 -15
      vertex 8.22191 3.66063 -15
      vertex 6.35796 1.35143 -15
    endloop
  endfacet
  facet normal -0 0 -1
    outer loop
      vertex 8.22191 3.66063 -15
      vertex 5.93804 2.64379 -15
      vertex 7.28115 5.29007 -15
    endloop
  endfacet
  facet normal 0 0 -1
    outer loop
      vertex 5.25861 3.8206 -15
      vertex 7.28115 5.29007 -15
      vertex 5.93804 2.64379 -15
    endloop
  endfacet
  facet normal -0 0 -1
    outer loop
      vertex 7.28115 5.29007 -15
      vertex 5.25861 3.8206 -15
      vertex 6.02217 6.6883 -15
    endloop
  endfacet
  facet normal 0 0 -1
    outer loop
      vertex 4.34935 4.83044 -15
      vertex 6.02217 6.6883 -15
      vertex 5.25861 3.8206 -15
    endloop
  endfacet
  facet normal -0 0 -1
    outer loop
      vertex 6.02217 6.6883 -15
      vertex 4.34935 4.83044 -15
      vertex 4.5 7.79423 -15
    endloop
  endfacet
  facet normal 0 0 -1
    outer loop
      vertex 3.25 5.62916 -15
      vertex 4.5 7.79423 -15
      vertex 4.34935 4.83044 -15
    endloop
  endfacet
  facet normal 0 0 -1
    outer loop
      vertex 3.25 5.62916 -15
      vertex 2.78115 8.55951 -15
      vertex 4.5 7.79423 -15
    endloop
  endfacet
  facet normal 0 0 -1
    outer loop
      vertex 2.00861 6.18187 -15
      vertex 2.78115 8.55951 -15
      vertex 3.25 5.62916 -15
    endloop
  endfacet
  facet normal 0 0 -1
    outer loop
      vertex 2.00861 6.18187 -15
      vertex 0.940756 8.9507 -15
      vertex 2.78115 8.55951 -15
    endloop
  endfacet
  facet normal 0 0 -1
    outer loop
      vertex 0.679435 6.46439 -15
      vertex 0.940756 8.9507 -15
      vertex 2.00861 6.18187 -15
    endloop
  endfacet
  facet normal 0 0 -1
    outer loop
      vertex -0.679435 6.46439 -15
      vertex 0.940756 8.9507 -15
      vertex 0.679435 6.46439 -15
    endloop
  endfacet
  facet normal 0 0 -1
    outer loop
      vertex -0.679435 6.46439 -15
      vertex -0.940756 8.9507 -15
      vertex 0.940756 8.9507 -15
    endloop
  endfacet
  facet normal 0 0 -1
    outer loop
      vertex -2.00861 6.18187 -15
      vertex -0.940756 8.9507 -15
      vertex -0.679435 6.46439 -15
    endloop
  endfacet
  facet normal 0 0 -1
    outer loop
      vertex -2.00861 6.18187 -15
      vertex -2.78115 8.55951 -15
      vertex -0.940756 8.9507 -15
    endloop
  endfacet
  facet normal 0 0 -1
    outer loop
      vertex -3.25 5.62916 -15
      vertex -2.78115 8.55951 -15
      vertex -2.00861 6.18187 -15
    endloop
  endfacet
  facet normal 0 0 -1
    outer loop
      vertex -4.5 7.79423 -15
      vertex -3.25 5.62916 -15
      vertex -4.34935 4.83044 -15
    endloop
  endfacet
  facet normal 0 0 -1
    outer loop
      vertex -3.25 5.62916 -15
      vertex -4.5 7.79423 -15
      vertex -2.78115 8.55951 -15
    endloop
  endfacet
  facet normal 0 0 -1
    outer loop
      vertex -6.02217 6.6883 -15
      vertex -4.34935 4.83044 -15
      vertex -5.25861 3.8206 -15
    endloop
  endfacet
  facet normal 0 0 -1
    outer loop
      vertex -7.28115 5.29007 -15
      vertex -5.25861 3.8206 -15
      vertex -5.93804 2.64379 -15
    endloop
  endfacet
  facet normal 0 0 -1
    outer loop
      vertex -4.34935 4.83044 -15
      vertex -6.02217 6.6883 -15
      vertex -4.5 7.79423 -15
    endloop
  endfacet
  facet normal 0 0 -1
    outer loop
      vertex -8.22191 3.66063 -15
      vertex -5.93804 2.64379 -15
      vertex -6.35796 1.35143 -15
    endloop
  endfacet
  facet normal 0 0 -1
    outer loop
      vertex -8.80333 1.8712 -15
      vertex -6.35796 1.35143 -15
      vertex -6.5 0 -15
    endloop
  endfacet
  facet normal 0 0 -1
    outer loop
      vertex -8.80333 -1.8712 -15
      vertex -6.35796 -1.35143 -15
      vertex -8.22191 -3.66063 -15
    endloop
  endfacet
  facet normal 0 0 -1
    outer loop
      vertex -5.25861 3.8206 -15
      vertex -7.28115 5.29007 -15
      vertex -6.02217 6.6883 -15
    endloop
  endfacet
  facet normal -0 0 -1
    outer loop
      vertex -6.35796 -1.35143 -15
      vertex -8.80333 -1.8712 -15
      vertex -6.5 0 -15
    endloop
  endfacet
  facet normal 0 0 -1
    outer loop
      vertex -5.93804 2.64379 -15
      vertex -8.22191 3.66063 -15
      vertex -7.28115 5.29007 -15
    endloop
  endfacet
  facet normal 0 0 -1
    outer loop
      vertex -9 0 -15
      vertex -6.5 0 -15
      vertex -8.80333 -1.8712 -15
    endloop
  endfacet
  facet normal 0 0 -1
    outer loop
      vertex -6.35796 1.35143 -15
      vertex -8.80333 1.8712 -15
      vertex -8.22191 3.66063 -15
    endloop
  endfacet
  facet normal 0 0 -1
    outer loop
      vertex -6.5 0 -15
      vertex -9 0 -15
      vertex -8.80333 1.8712 -15
    endloop
  endfacet
  facet normal -0.951057 -0.309017 4.39284e-08
    outer loop
      vertex -8.22191 -3.66063 15
      vertex -8.80333 -1.8712 4.88224
      vertex -8.58421 -2.54558 4.58199
    endloop
  endfacet
  facet normal -0.951057 -0.309016 7.47438e-08
    outer loop
      vertex -8.22191 -3.66063 15
      vertex -8.58421 -2.54558 4.58199
      vertex -8.5584 -2.625 4.54663
    endloop
  endfacet
  facet normal -0.951054 -0.309024 -7.82317e-07
    outer loop
      vertex -8.22191 -3.66063 15
      vertex -8.5584 -2.625 4.54663
      vertex -8.53624 -2.6932 4.49708
    endloop
  endfacet
  facet normal -0.951057 -0.309016 4.13602e-08
    outer loop
      vertex -8.22191 -3.66063 15
      vertex -8.53624 -2.6932 4.49708
      vertex -8.2699 -3.51294 3.90151
    endloop
  endfacet
  facet normal -0.951056 -0.309019 -0
    outer loop
      vertex -8.22191 -3.66063 15
      vertex -8.2699 -3.51294 3.90151
      vertex -8.22191 -3.66063 3.73748
    endloop
  endfacet
  facet normal -0.951057 -0.309017 0
    outer loop
      vertex -8.80333 -1.8712 4.88224
      vertex -8.22191 -3.66063 15
      vertex -8.80333 -1.8712 15
    endloop
  endfacet
  facet normal -0.951057 -0.309017 0
    outer loop
      vertex -8.22191 -3.66063 -15
      vertex -8.80333 -1.8712 -4.88224
      vertex -8.80333 -1.8712 -15
    endloop
  endfacet
  facet normal -0.951057 -0.309017 -4.91388e-08
    outer loop
      vertex -8.80333 -1.8712 -4.88224
      vertex -8.22191 -3.66063 -15
      vertex -8.5584 -2.625 -4.54663
    endloop
  endfacet
  facet normal -0.951057 -0.309017 -3.17012e-08
    outer loop
      vertex -8.5584 -2.625 -4.54663
      vertex -8.22191 -3.66063 -15
      vertex -8.2699 -3.51294 -3.90151
    endloop
  endfacet
  facet normal -0.951056 -0.309019 0
    outer loop
      vertex -8.2699 -3.51294 -3.90151
      vertex -8.22191 -3.66063 -15
      vertex -8.22191 -3.66063 -3.73748
    endloop
  endfacet
  facet normal -0.743145 -0.669131 0
    outer loop
      vertex -6.02217 -6.6883 -15
      vertex -7.28115 -5.29007 15
      vertex -7.28115 -5.29007 -15
    endloop
  endfacet
  facet normal -0.743145 -0.669131 0
    outer loop
      vertex -7.28115 -5.29007 15
      vertex -6.02217 -6.6883 -15
      vertex -6.02217 -6.6883 15
    endloop
  endfacet
  facet normal 0.743145 -0.669131 0
    outer loop
      vertex 6.02217 -6.6883 15
      vertex 7.28115 -5.29007 -15
      vertex 7.28115 -5.29007 15
    endloop
  endfacet
  facet normal 0.743145 -0.669131 0
    outer loop
      vertex 7.28115 -5.29007 -15
      vertex 6.02217 -6.6883 15
      vertex 6.02217 -6.6883 -15
    endloop
  endfacet
  facet normal -0.406736 -0.913546 0
    outer loop
      vertex -4.5 -7.79423 -15
      vertex -2.78115 -8.55951 15
      vertex -4.5 -7.79423 15
    endloop
  endfacet
  facet normal -0.406736 -0.913546 -0
    outer loop
      vertex -2.78115 -8.55951 15
      vertex -4.5 -7.79423 -15
      vertex -2.78115 -8.55951 -15
    endloop
  endfacet
  facet normal -0.587786 -0.809017 0
    outer loop
      vertex -6.02217 -6.6883 -15
      vertex -4.5 -7.79423 15
      vertex -6.02217 -6.6883 15
    endloop
  endfacet
  facet normal -0.587786 -0.809017 -0
    outer loop
      vertex -4.5 -7.79423 15
      vertex -6.02217 -6.6883 -15
      vertex -4.5 -7.79423 -15
    endloop
  endfacet
  facet normal 0 0.994521 0.104538
    outer loop
      vertex -7.3693 5.13739 1.07138
      vertex -27 5.13527 1.09154
      vertex -7.37052 5.13527 1.09154
    endloop
  endfacet
  facet normal -9.60716e-09 0.994522 0.104529
    outer loop
      vertex -27 5.13527 1.09154
      vertex -7.3693 5.13739 1.07138
      vertex -27 5.25 0
    endloop
  endfacet
  facet normal 4.81552e-08 0.994522 0.104528
    outer loop
      vertex -7.30429 5.25 0
      vertex -27 5.25 0
      vertex -7.3693 5.13739 1.07138
    endloop
  endfacet
  facet normal 0 0 1
    outer loop
      vertex -8.94232 0.548774 5.22124
      vertex -27 0.548774 5.22124
      vertex -9 0 5.22124
    endloop
  endfacet
  facet normal 0 0 1
    outer loop
      vertex -27 -0.548774 5.22124
      vertex -9 0 5.22124
      vertex -27 0.548774 5.22124
    endloop
  endfacet
  facet normal 0 0 1
    outer loop
      vertex -9 0 5.22124
      vertex -27 -0.548774 5.22124
      vertex -8.94232 -0.548774 5.22124
    endloop
  endfacet
  facet normal 6.6453e-09 0.743146 0.66913
    outer loop
      vertex -27 4.24734 3.08587
      vertex -8.2699 3.51294 3.90151
      vertex -8.22191 3.66063 3.73748
    endloop
  endfacet
  facet normal -0 0.743146 0.66913
    outer loop
      vertex -27 4.24734 3.08587
      vertex -8.22191 3.66063 3.73748
      vertex -7.88317 4.24734 3.08587
    endloop
  endfacet
  facet normal 0 0.743146 0.66913
    outer loop
      vertex -8.2699 3.51294 3.90151
      vertex -27 4.24734 3.08587
      vertex -27 3.51294 3.90151
    endloop
  endfacet
  facet normal 0 0 -1
    outer loop
      vertex -8.94232 -0.548774 -5.22124
      vertex -27 -0.548774 -5.22124
      vertex -9 0 -5.22124
    endloop
  endfacet
  facet normal 0 0 -1
    outer loop
      vertex -27 0.548774 -5.22124
      vertex -9 0 -5.22124
      vertex -27 -0.548774 -5.22124
    endloop
  endfacet
  facet normal 0 0 -1
    outer loop
      vertex -9 0 -5.22124
      vertex -27 0.548774 -5.22124
      vertex -8.94232 0.548774 -5.22124
    endloop
  endfacet
  facet normal 3.03962e-08 0.587784 0.809018
    outer loop
      vertex -8.28848 3.45573 3.94307
      vertex -27 2.625 4.54663
      vertex -8.5584 2.625 4.54663
    endloop
  endfacet
  facet normal -0 0.951056 0.309018
    outer loop
      vertex -27 5.13527 1.09154
      vertex -7.56634 4.79611 2.13537
      vertex -7.37052 5.13527 1.09154
    endloop
  endfacet
  facet normal 0 0.951056 0.309018
    outer loop
      vertex -7.56634 4.79611 2.13537
      vertex -27 5.13527 1.09154
      vertex -27 4.79611 2.13537
    endloop
  endfacet
  facet normal -3.90908e-08 -0.994522 0.104528
    outer loop
      vertex -27 -5.25 0
      vertex -7.3053 -5.24825 0.0166621
      vertex -27 -5.13527 1.09154
    endloop
  endfacet
  facet normal -4.81551e-08 -0.994521 0.104538
    outer loop
      vertex -7.3053 -5.24825 0.0166621
      vertex -27 -5.25 0
      vertex -7.30429 -5.25 0
    endloop
  endfacet
  facet normal 0 -0.207912 -0.978148
    outer loop
      vertex -27 -1.62234 -4.99305
      vertex -8.94232 -0.548774 -5.22124
      vertex -8.82948 -1.62234 -4.99305
    endloop
  endfacet
  facet normal -0 -0.207912 -0.978148
    outer loop
      vertex -8.94232 -0.548774 -5.22124
      vertex -27 -1.62234 -4.99305
      vertex -27 -0.548774 -5.22124
    endloop
  endfacet
  facet normal -0 0.207912 0.978148
    outer loop
      vertex -27 1.62234 4.99305
      vertex -8.94232 0.548774 5.22124
      vertex -8.82948 1.62234 4.99305
    endloop
  endfacet
  facet normal 0 0.207912 0.978148
    outer loop
      vertex -8.94232 0.548774 5.22124
      vertex -27 1.62234 4.99305
      vertex -27 0.548774 5.22124
    endloop
  endfacet
  facet normal 2.12429e-08 0.406736 0.913546
    outer loop
      vertex -27 2.625 4.54663
      vertex -8.82948 1.62234 4.99305
      vertex -8.81989 1.71358 4.95242
    endloop
  endfacet
  facet normal 0 0.406736 0.913546
    outer loop
      vertex -8.82948 1.62234 4.99305
      vertex -27 2.625 4.54663
      vertex -27 1.62234 4.99305
    endloop
  endfacet
  facet normal -0 0.587786 0.809016
    outer loop
      vertex -27 3.51294 3.90151
      vertex -8.28848 3.45573 3.94307
      vertex -8.2699 3.51294 3.90151
    endloop
  endfacet
  facet normal -6.18584e-09 0.587785 0.809017
    outer loop
      vertex -8.28848 3.45573 3.94307
      vertex -27 3.51294 3.90151
      vertex -27 2.625 4.54663
    endloop
  endfacet
  facet normal -0 0.866025 0.5
    outer loop
      vertex -27 4.79611 2.13537
      vertex -7.88317 4.24734 3.08587
      vertex -7.56634 4.79611 2.13537
    endloop
  endfacet
  facet normal 0 0.866025 0.5
    outer loop
      vertex -7.88317 4.24734 3.08587
      vertex -27 4.79611 2.13537
      vertex -27 4.24734 3.08587
    endloop
  endfacet
  facet normal 0 -0.951056 0.309018
    outer loop
      vertex -27 -5.13527 1.09154
      vertex -7.56634 -4.79611 2.13537
      vertex -27 -4.79611 2.13537
    endloop
  endfacet
  facet normal 0 -0.951056 0.309018
    outer loop
      vertex -7.56634 -4.79611 2.13537
      vertex -27 -5.13527 1.09154
      vertex -7.37052 -5.13527 1.09154
    endloop
  endfacet
  facet normal 0 -0.587785 0.809017
    outer loop
      vertex -8.53624 -2.6932 4.49708
      vertex -27 -3.51294 3.90151
      vertex -8.2699 -3.51294 3.90151
    endloop
  endfacet
  facet normal 0 -0.587785 -0.809017
    outer loop
      vertex -27 -3.51294 -3.90151
      vertex -8.5584 -2.625 -4.54663
      vertex -8.2699 -3.51294 -3.90151
    endloop
  endfacet
  facet normal -0 -0.587785 -0.809017
    outer loop
      vertex -8.5584 -2.625 -4.54663
      vertex -27 -3.51294 -3.90151
      vertex -27 -2.625 -4.54663
    endloop
  endfacet
  facet normal 0 -0.406736 -0.913546
    outer loop
      vertex -27 -2.625 -4.54663
      vertex -8.80333 -1.8712 -4.88224
      vertex -8.5584 -2.625 -4.54663
    endloop
  endfacet
  facet normal 6.50726e-09 -0.406736 -0.913546
    outer loop
      vertex -27 -2.625 -4.54663
      vertex -8.82948 -1.62234 -4.99305
      vertex -8.80333 -1.8712 -4.88224
    endloop
  endfacet
  facet normal -0 -0.406736 -0.913546
    outer loop
      vertex -8.82948 -1.62234 -4.99305
      vertex -27 -2.625 -4.54663
      vertex -27 -1.62234 -4.99305
    endloop
  endfacet
  facet normal -6.18584e-09 0.587785 -0.809017
    outer loop
      vertex -27 3.51294 -3.90151
      vertex -8.28848 3.45573 -3.94307
      vertex -27 2.625 -4.54663
    endloop
  endfacet
  facet normal 0 0.587786 -0.809016
    outer loop
      vertex -8.28848 3.45573 -3.94307
      vertex -27 3.51294 -3.90151
      vertex -8.2699 3.51294 -3.90151
    endloop
  endfacet
  facet normal 4.81552e-08 0.994522 -0.104528
    outer loop
      vertex -7.3693 5.13739 -1.07138
      vertex -27 5.25 0
      vertex -7.30429 5.25 0
    endloop
  endfacet
  facet normal -3.11364e-08 -0.406736 0.913546
    outer loop
      vertex -27 -2.625 4.54663
      vertex -8.58421 -2.54558 4.58199
      vertex -27 -1.62234 4.99305
    endloop
  endfacet
  facet normal -2.10338e-08 -0.406738 0.913545
    outer loop
      vertex -8.58421 -2.54558 4.58199
      vertex -27 -2.625 4.54663
      vertex -8.5584 -2.625 4.54663
    endloop
  endfacet
  facet normal 9.51223e-11 0.406736 0.913546
    outer loop
      vertex -8.80333 1.8712 4.88224
      vertex -27 2.625 4.54663
      vertex -8.81989 1.71358 4.95242
    endloop
  endfacet
  facet normal 2.10337e-08 0.406736 0.913546
    outer loop
      vertex -27 2.625 4.54663
      vertex -8.80333 1.8712 4.88224
      vertex -8.5584 2.625 4.54663
    endloop
  endfacet
  facet normal 0 -0.994522 0.104528
    outer loop
      vertex -7.37052 -5.13527 1.09154
      vertex -27 -5.13527 1.09154
      vertex -7.3053 -5.24825 0.0166621
    endloop
  endfacet
  facet normal 6.63554e-09 -0.406736 0.913546
    outer loop
      vertex -8.80333 -1.8712 4.88224
      vertex -27 -1.62234 4.99305
      vertex -8.58421 -2.54558 4.58199
    endloop
  endfacet
  facet normal 0 -0.406736 0.913546
    outer loop
      vertex -27 -1.62234 4.99305
      vertex -8.80333 -1.8712 4.88224
      vertex -8.82948 -1.62234 4.99305
    endloop
  endfacet
  facet normal 0 -0.207912 0.978148
    outer loop
      vertex -27 -1.62234 4.99305
      vertex -8.94232 -0.548774 5.22124
      vertex -27 -0.548774 5.22124
    endloop
  endfacet
  facet normal 0 -0.207912 0.978148
    outer loop
      vertex -8.94232 -0.548774 5.22124
      vertex -27 -1.62234 4.99305
      vertex -8.82948 -1.62234 4.99305
    endloop
  endfacet
  facet normal -1 0 0
    outer loop
      vertex -27 5.13527 -1.09154
      vertex -27 5.13527 1.09154
      vertex -27 5.25 0
    endloop
  endfacet
  facet normal -1 0 0
    outer loop
      vertex -27 4.79611 -2.13537
      vertex -27 5.13527 1.09154
      vertex -27 5.13527 -1.09154
    endloop
  endfacet
  facet normal -1 0 0
    outer loop
      vertex -27 4.79611 -2.13537
      vertex -27 4.79611 2.13537
      vertex -27 5.13527 1.09154
    endloop
  endfacet
  facet normal -1 0 0
    outer loop
      vertex -27 4.24734 -3.08587
      vertex -27 4.79611 2.13537
      vertex -27 4.79611 -2.13537
    endloop
  endfacet
  facet normal -1 0 0
    outer loop
      vertex -27 4.24734 -3.08587
      vertex -27 4.24734 3.08587
      vertex -27 4.79611 2.13537
    endloop
  endfacet
  facet normal -1 0 0
    outer loop
      vertex -27 3.51294 -3.90151
      vertex -27 4.24734 3.08587
      vertex -27 4.24734 -3.08587
    endloop
  endfacet
  facet normal -1 0 0
    outer loop
      vertex -27 3.51294 -3.90151
      vertex -27 3.51294 3.90151
      vertex -27 4.24734 3.08587
    endloop
  endfacet
  facet normal -1 0 0
    outer loop
      vertex -27 2.625 -4.54663
      vertex -27 3.51294 3.90151
      vertex -27 3.51294 -3.90151
    endloop
  endfacet
  facet normal -1 0 0
    outer loop
      vertex -27 2.625 -4.54663
      vertex -27 2.625 4.54663
      vertex -27 3.51294 3.90151
    endloop
  endfacet
  facet normal -1 0 0
    outer loop
      vertex -27 1.62234 -4.99305
      vertex -27 2.625 4.54663
      vertex -27 2.625 -4.54663
    endloop
  endfacet
  facet normal -1 0 0
    outer loop
      vertex -27 1.62234 -4.99305
      vertex -27 1.62234 4.99305
      vertex -27 2.625 4.54663
    endloop
  endfacet
  facet normal -1 0 0
    outer loop
      vertex -27 0.548774 -5.22124
      vertex -27 1.62234 4.99305
      vertex -27 1.62234 -4.99305
    endloop
  endfacet
  facet normal -1 0 0
    outer loop
      vertex -27 0.548774 -5.22124
      vertex -27 0.548774 5.22124
      vertex -27 1.62234 4.99305
    endloop
  endfacet
  facet normal -1 0 0
    outer loop
      vertex -27 -0.548774 -5.22124
      vertex -27 0.548774 5.22124
      vertex -27 0.548774 -5.22124
    endloop
  endfacet
  facet normal -1 0 0
    outer loop
      vertex -27 -0.548774 -5.22124
      vertex -27 -0.548774 5.22124
      vertex -27 0.548774 5.22124
    endloop
  endfacet
  facet normal -1 0 0
    outer loop
      vertex -27 -1.62234 -4.99305
      vertex -27 -0.548774 5.22124
      vertex -27 -0.548774 -5.22124
    endloop
  endfacet
  facet normal -1 0 0
    outer loop
      vertex -27 -1.62234 -4.99305
      vertex -27 -1.62234 4.99305
      vertex -27 -0.548774 5.22124
    endloop
  endfacet
  facet normal -1 0 0
    outer loop
      vertex -27 -1.62234 -4.99305
      vertex -27 -2.625 4.54663
      vertex -27 -1.62234 4.99305
    endloop
  endfacet
  facet normal -1 0 0
    outer loop
      vertex -27 -2.625 -4.54663
      vertex -27 -2.625 4.54663
      vertex -27 -1.62234 -4.99305
    endloop
  endfacet
  facet normal -1 0 0
    outer loop
      vertex -27 -3.51294 -3.90151
      vertex -27 -2.625 4.54663
      vertex -27 -2.625 -4.54663
    endloop
  endfacet
  facet normal -1 0 0
    outer loop
      vertex -27 -3.51294 -3.90151
      vertex -27 -3.51294 3.90151
      vertex -27 -2.625 4.54663
    endloop
  endfacet
  facet normal -1 0 0
    outer loop
      vertex -27 -4.24734 -3.08587
      vertex -27 -3.51294 3.90151
      vertex -27 -3.51294 -3.90151
    endloop
  endfacet
  facet normal -1 0 0
    outer loop
      vertex -27 -4.24734 -3.08587
      vertex -27 -4.24734 3.08587
      vertex -27 -3.51294 3.90151
    endloop
  endfacet
  facet normal -1 0 0
    outer loop
      vertex -27 -4.79611 -2.13537
      vertex -27 -4.24734 3.08587
      vertex -27 -4.24734 -3.08587
    endloop
  endfacet
  facet normal -1 0 0
    outer loop
      vertex -27 -4.79611 -2.13537
      vertex -27 -4.79611 2.13537
      vertex -27 -4.24734 3.08587
    endloop
  endfacet
  facet normal -1 0 0
    outer loop
      vertex -27 -5.13527 -1.09154
      vertex -27 -4.79611 2.13537
      vertex -27 -4.79611 -2.13537
    endloop
  endfacet
  facet normal -1 0 0
    outer loop
      vertex -27 -5.13527 -1.09154
      vertex -27 -5.13527 1.09154
      vertex -27 -4.79611 2.13537
    endloop
  endfacet
  facet normal -1 0 -0
    outer loop
      vertex -27 -5.13527 1.09154
      vertex -27 -5.13527 -1.09154
      vertex -27 -5.25 0
    endloop
  endfacet
  facet normal -4.81551e-08 -0.994521 -0.104538
    outer loop
      vertex -27 -5.25 0
      vertex -7.3053 -5.24825 -0.0166621
      vertex -7.30429 -5.25 0
    endloop
  endfacet
  facet normal -3.90908e-08 -0.994522 -0.104528
    outer loop
      vertex -7.3053 -5.24825 -0.0166621
      vertex -27 -5.25 0
      vertex -27 -5.13527 -1.09154
    endloop
  endfacet
  facet normal -0 -0.866025 -0.5
    outer loop
      vertex -7.88317 -4.24734 -3.08587
      vertex -27 -4.79611 -2.13537
      vertex -27 -4.24734 -3.08587
    endloop
  endfacet
  facet normal 0 -0.866025 -0.5
    outer loop
      vertex -27 -4.79611 -2.13537
      vertex -7.88317 -4.24734 -3.08587
      vertex -7.56634 -4.79611 -2.13537
    endloop
  endfacet
  facet normal 0 0.866025 -0.5
    outer loop
      vertex -7.88317 4.24734 -3.08587
      vertex -27 4.79611 -2.13537
      vertex -7.56634 4.79611 -2.13537
    endloop
  endfacet
  facet normal 0 0.866025 -0.5
    outer loop
      vertex -27 4.79611 -2.13537
      vertex -7.88317 4.24734 -3.08587
      vertex -27 4.24734 -3.08587
    endloop
  endfacet
  facet normal 0 0.743146 -0.66913
    outer loop
      vertex -8.22191 3.66063 -3.73748
      vertex -27 4.24734 -3.08587
      vertex -7.88317 4.24734 -3.08587
    endloop
  endfacet
  facet normal 6.6453e-09 0.743146 -0.66913
    outer loop
      vertex -8.2699 3.51294 -3.90151
      vertex -27 4.24734 -3.08587
      vertex -8.22191 3.66063 -3.73748
    endloop
  endfacet
  facet normal 0 0.743146 -0.66913
    outer loop
      vertex -27 4.24734 -3.08587
      vertex -8.2699 3.51294 -3.90151
      vertex -27 3.51294 -3.90151
    endloop
  endfacet
  facet normal 2.10337e-08 0.406736 -0.913546
    outer loop
      vertex -8.80333 1.8712 -4.88224
      vertex -27 2.625 -4.54663
      vertex -8.5584 2.625 -4.54663
    endloop
  endfacet
  facet normal 9.51223e-11 0.406736 -0.913546
    outer loop
      vertex -27 2.625 -4.54663
      vertex -8.80333 1.8712 -4.88224
      vertex -8.81989 1.71358 -4.95242
    endloop
  endfacet
  facet normal 3.03962e-08 0.587784 -0.809018
    outer loop
      vertex -8.5584 2.625 -4.54663
      vertex -27 2.625 -4.54663
      vertex -8.28848 3.45573 -3.94307
    endloop
  endfacet
  facet normal 0 -0.866025 0.5
    outer loop
      vertex -27 -4.79611 2.13537
      vertex -7.88317 -4.24734 3.08587
      vertex -27 -4.24734 3.08587
    endloop
  endfacet
  facet normal 0 -0.866025 0.5
    outer loop
      vertex -7.88317 -4.24734 3.08587
      vertex -27 -4.79611 2.13537
      vertex -7.56634 -4.79611 2.13537
    endloop
  endfacet
  facet normal 0 -0.743146 0.66913
    outer loop
      vertex -27 -4.24734 3.08587
      vertex -8.2699 -3.51294 3.90151
      vertex -27 -3.51294 3.90151
    endloop
  endfacet
  facet normal 6.6453e-09 -0.743146 0.66913
    outer loop
      vertex -8.2699 -3.51294 3.90151
      vertex -27 -4.24734 3.08587
      vertex -8.22191 -3.66063 3.73748
    endloop
  endfacet
  facet normal 0 -0.743146 0.66913
    outer loop
      vertex -8.22191 -3.66063 3.73748
      vertex -27 -4.24734 3.08587
      vertex -7.88317 -4.24734 3.08587
    endloop
  endfacet
  facet normal -3.03962e-08 -0.587785 0.809018
    outer loop
      vertex -27 -3.51294 3.90151
      vertex -8.5584 -2.625 4.54663
      vertex -27 -2.625 4.54663
    endloop
  endfacet
  facet normal 1.15126e-07 -0.587787 0.809016
    outer loop
      vertex -8.5584 -2.625 4.54663
      vertex -27 -3.51294 3.90151
      vertex -8.53624 -2.6932 4.49708
    endloop
  endfacet
  facet normal 0 -0.743146 -0.66913
    outer loop
      vertex -27 -4.24734 -3.08587
      vertex -8.22191 -3.66063 -3.73748
      vertex -7.88317 -4.24734 -3.08587
    endloop
  endfacet
  facet normal -0 -0.743146 -0.66913
    outer loop
      vertex -8.2699 -3.51294 -3.90151
      vertex -27 -4.24734 -3.08587
      vertex -27 -3.51294 -3.90151
    endloop
  endfacet
  facet normal 6.6453e-09 -0.743146 -0.66913
    outer loop
      vertex -27 -4.24734 -3.08587
      vertex -8.2699 -3.51294 -3.90151
      vertex -8.22191 -3.66063 -3.73748
    endloop
  endfacet
  facet normal 0 0.207912 -0.978148
    outer loop
      vertex -27 1.62234 -4.99305
      vertex -8.94232 0.548774 -5.22124
      vertex -27 0.548774 -5.22124
    endloop
  endfacet
  facet normal 0 0.207912 -0.978148
    outer loop
      vertex -8.94232 0.548774 -5.22124
      vertex -27 1.62234 -4.99305
      vertex -8.82948 1.62234 -4.99305
    endloop
  endfacet
  facet normal 0 0.406736 -0.913546
    outer loop
      vertex -27 2.625 -4.54663
      vertex -8.82948 1.62234 -4.99305
      vertex -27 1.62234 -4.99305
    endloop
  endfacet
  facet normal 2.12429e-08 0.406736 -0.913546
    outer loop
      vertex -8.82948 1.62234 -4.99305
      vertex -27 2.625 -4.54663
      vertex -8.81989 1.71358 -4.95242
    endloop
  endfacet
  facet normal -5.18573e-07 0.994521 -0.104538
    outer loop
      vertex -7.37052 5.13527 -1.09154
      vertex -27 5.25 0
      vertex -7.3693 5.13739 -1.07138
    endloop
  endfacet
  facet normal 0 0.994522 -0.104529
    outer loop
      vertex -27 5.25 0
      vertex -7.37052 5.13527 -1.09154
      vertex -27 5.13527 -1.09154
    endloop
  endfacet
  facet normal 0 0.951056 -0.309018
    outer loop
      vertex -7.56634 4.79611 -2.13537
      vertex -27 5.13527 -1.09154
      vertex -7.37052 5.13527 -1.09154
    endloop
  endfacet
  facet normal 0 0.951056 -0.309018
    outer loop
      vertex -27 5.13527 -1.09154
      vertex -7.56634 4.79611 -2.13537
      vertex -27 4.79611 -2.13537
    endloop
  endfacet
  facet normal 0 -0.994522 -0.104528
    outer loop
      vertex -7.3053 -5.24825 -0.0166621
      vertex -27 -5.13527 -1.09154
      vertex -7.37052 -5.13527 -1.09154
    endloop
  endfacet
  facet normal -0 -0.951056 -0.309018
    outer loop
      vertex -7.56634 -4.79611 -2.13537
      vertex -27 -5.13527 -1.09154
      vertex -27 -4.79611 -2.13537
    endloop
  endfacet
  facet normal 0 -0.951056 -0.309018
    outer loop
      vertex -27 -5.13527 -1.09154
      vertex -7.56634 -4.79611 -2.13537
      vertex -7.37052 -5.13527 -1.09154
    endloop
  endfacet
  facet normal -0.866025 -0.5 0
    outer loop
      vertex 5.93804 2.64379 -15
      vertex 5.25861 3.8206 15
      vertex 5.25861 3.8206 -15
    endloop
  endfacet
  facet normal -0.866025 -0.5 0
    outer loop
      vertex 5.25861 3.8206 15
      vertex 5.93804 2.64379 -15
      vertex 5.93804 2.64379 15
    endloop
  endfacet
  facet normal 0 -1 0
    outer loop
      vertex -0.679435 6.46439 -15
      vertex 0.679435 6.46439 15
      vertex -0.679435 6.46439 15
    endloop
  endfacet
  facet normal 0 -1 -0
    outer loop
      vertex 0.679435 6.46439 15
      vertex -0.679435 6.46439 -15
      vertex 0.679435 6.46439 -15
    endloop
  endfacet
  facet normal -0.743145 -0.669131 0
    outer loop
      vertex 5.25861 3.8206 -15
      vertex 4.34935 4.83044 15
      vertex 4.34935 4.83044 -15
    endloop
  endfacet
  facet normal -0.743145 -0.669131 0
    outer loop
      vertex 4.34935 4.83044 15
      vertex 5.25861 3.8206 -15
      vertex 5.25861 3.8206 15
    endloop
  endfacet
  facet normal -0.207912 -0.978148 0
    outer loop
      vertex 0.679435 6.46439 -15
      vertex 2.00861 6.18187 15
      vertex 0.679435 6.46439 15
    endloop
  endfacet
  facet normal -0.207912 -0.978148 -0
    outer loop
      vertex 2.00861 6.18187 15
      vertex 0.679435 6.46439 -15
      vertex 2.00861 6.18187 -15
    endloop
  endfacet
  facet normal 0.406737 -0.913546 0
    outer loop
      vertex -3.25 5.62916 -15
      vertex -2.00861 6.18187 15
      vertex -3.25 5.62916 15
    endloop
  endfacet
  facet normal 0.406737 -0.913546 0
    outer loop
      vertex -2.00861 6.18187 15
      vertex -3.25 5.62916 -15
      vertex -2.00861 6.18187 -15
    endloop
  endfacet
  facet normal 0.866025 -0.5 0
    outer loop
      vertex -5.93804 2.64379 15
      vertex -5.25861 3.8206 -15
      vertex -5.25861 3.8206 15
    endloop
  endfacet
  facet normal 0.866025 -0.5 0
    outer loop
      vertex -5.25861 3.8206 -15
      vertex -5.93804 2.64379 15
      vertex -5.93804 2.64379 -15
    endloop
  endfacet
  facet normal -0.994522 0.104529 0
    outer loop
      vertex 6.35796 -1.35143 -15
      vertex 6.5 0 15
      vertex 6.5 0 -15
    endloop
  endfacet
  facet normal -0.994522 0.104529 0
    outer loop
      vertex 6.5 0 15
      vertex 6.35796 -1.35143 -15
      vertex 6.35796 -1.35143 15
    endloop
  endfacet
  facet normal -0.207912 0.978148 0
    outer loop
      vertex 2.00861 -6.18187 -15
      vertex 0.679435 -6.46439 15
      vertex 2.00861 -6.18187 15
    endloop
  endfacet
  facet normal -0.207912 0.978148 0
    outer loop
      vertex 0.679435 -6.46439 15
      vertex 2.00861 -6.18187 -15
      vertex 0.679435 -6.46439 -15
    endloop
  endfacet
  facet normal -0.951056 -0.309017 0
    outer loop
      vertex 6.35796 1.35143 -15
      vertex 5.93804 2.64379 15
      vertex 5.93804 2.64379 -15
    endloop
  endfacet
  facet normal -0.951056 -0.309017 0
    outer loop
      vertex 5.93804 2.64379 15
      vertex 6.35796 1.35143 -15
      vertex 6.35796 1.35143 15
    endloop
  endfacet
  facet normal -0.587786 -0.809017 0
    outer loop
      vertex 3.25 5.62916 -15
      vertex 4.34935 4.83044 15
      vertex 3.25 5.62916 15
    endloop
  endfacet
  facet normal -0.587786 -0.809017 -0
    outer loop
      vertex 4.34935 4.83044 15
      vertex 3.25 5.62916 -15
      vertex 4.34935 4.83044 -15
    endloop
  endfacet
  facet normal -0.406736 -0.913546 0
    outer loop
      vertex 2.00861 6.18187 -15
      vertex 3.25 5.62916 15
      vertex 2.00861 6.18187 15
    endloop
  endfacet
  facet normal -0.406736 -0.913546 -0
    outer loop
      vertex 3.25 5.62916 15
      vertex 2.00861 6.18187 -15
      vertex 3.25 5.62916 -15
    endloop
  endfacet
  facet normal 0.994522 -0.104529 0
    outer loop
      vertex -6.5 0 15
      vertex -6.35796 1.35143 -15
      vertex -6.35796 1.35143 15
    endloop
  endfacet
  facet normal 0.994522 -0.104529 0
    outer loop
      vertex -6.35796 1.35143 -15
      vertex -6.5 0 15
      vertex -6.5 0 -15
    endloop
  endfacet
  facet normal 0.587785 -0.809017 0
    outer loop
      vertex -4.34935 4.83044 -15
      vertex -3.25 5.62916 15
      vertex -4.34935 4.83044 15
    endloop
  endfacet
  facet normal 0.587785 -0.809017 0
    outer loop
      vertex -3.25 5.62916 15
      vertex -4.34935 4.83044 -15
      vertex -3.25 5.62916 -15
    endloop
  endfacet
  facet normal 0.207912 -0.978148 0
    outer loop
      vertex -2.00861 6.18187 -15
      vertex -0.679435 6.46439 15
      vertex -2.00861 6.18187 15
    endloop
  endfacet
  facet normal 0.207912 -0.978148 0
    outer loop
      vertex -0.679435 6.46439 15
      vertex -2.00861 6.18187 -15
      vertex -0.679435 6.46439 -15
    endloop
  endfacet
  facet normal 0.743145 -0.669131 0
    outer loop
      vertex -5.25861 3.8206 15
      vertex -4.34935 4.83044 -15
      vertex -4.34935 4.83044 15
    endloop
  endfacet
  facet normal 0.743145 -0.669131 0
    outer loop
      vertex -4.34935 4.83044 -15
      vertex -5.25861 3.8206 15
      vertex -5.25861 3.8206 -15
    endloop
  endfacet
  facet normal -0.994522 -0.104529 0
    outer loop
      vertex 6.5 0 -15
      vertex 6.35796 1.35143 15
      vertex 6.35796 1.35143 -15
    endloop
  endfacet
  facet normal -0.994522 -0.104529 0
    outer loop
      vertex 6.35796 1.35143 15
      vertex 6.5 0 -15
      vertex 6.5 0 15
    endloop
  endfacet
  facet normal -0.951056 0.309017 0
    outer loop
      vertex 5.93804 -2.64379 -15
      vertex 6.35796 -1.35143 15
      vertex 6.35796 -1.35143 -15
    endloop
  endfacet
  facet normal -0.951056 0.309017 0
    outer loop
      vertex 6.35796 -1.35143 15
      vertex 5.93804 -2.64379 -15
      vertex 5.93804 -2.64379 15
    endloop
  endfacet
  facet normal 0.866025 0.5 0
    outer loop
      vertex -5.25861 -3.8206 15
      vertex -5.93804 -2.64379 -15
      vertex -5.93804 -2.64379 15
    endloop
  endfacet
  facet normal 0.866025 0.5 0
    outer loop
      vertex -5.93804 -2.64379 -15
      vertex -5.25861 -3.8206 15
      vertex -5.25861 -3.8206 -15
    endloop
  endfacet
  facet normal -0.587786 0.809017 0
    outer loop
      vertex 4.34935 -4.83044 -15
      vertex 3.25 -5.62916 15
      vertex 4.34935 -4.83044 15
    endloop
  endfacet
  facet normal -0.587786 0.809017 0
    outer loop
      vertex 3.25 -5.62916 15
      vertex 4.34935 -4.83044 -15
      vertex 3.25 -5.62916 -15
    endloop
  endfacet
  facet normal 0.951056 -0.309017 0
    outer loop
      vertex -6.35796 1.35143 15
      vertex -5.93804 2.64379 -15
      vertex -5.93804 2.64379 15
    endloop
  endfacet
  facet normal 0.951056 -0.309017 0
    outer loop
      vertex -5.93804 2.64379 -15
      vertex -6.35796 1.35143 15
      vertex -6.35796 1.35143 -15
    endloop
  endfacet
  facet normal -0.866025 0.5 0
    outer loop
      vertex 5.25861 -3.8206 -15
      vertex 5.93804 -2.64379 15
      vertex 5.93804 -2.64379 -15
    endloop
  endfacet
  facet normal -0.866025 0.5 0
    outer loop
      vertex 5.93804 -2.64379 15
      vertex 5.25861 -3.8206 -15
      vertex 5.25861 -3.8206 15
    endloop
  endfacet
  facet normal 0 1 -0
    outer loop
      vertex 0.679435 -6.46439 -15
      vertex -0.679435 -6.46439 15
      vertex 0.679435 -6.46439 15
    endloop
  endfacet
  facet normal 0 1 0
    outer loop
      vertex -0.679435 -6.46439 15
      vertex 0.679435 -6.46439 -15
      vertex -0.679435 -6.46439 -15
    endloop
  endfacet
  facet normal -0.406736 0.913546 0
    outer loop
      vertex 3.25 -5.62916 -15
      vertex 2.00861 -6.18187 15
      vertex 3.25 -5.62916 15
    endloop
  endfacet
  facet normal -0.406736 0.913546 0
    outer loop
      vertex 2.00861 -6.18187 15
      vertex 3.25 -5.62916 -15
      vertex 2.00861 -6.18187 -15
    endloop
  endfacet
  facet normal 0.951056 0.309017 0
    outer loop
      vertex -5.93804 -2.64379 15
      vertex -6.35796 -1.35143 -15
      vertex -6.35796 -1.35143 15
    endloop
  endfacet
  facet normal 0.951056 0.309017 0
    outer loop
      vertex -6.35796 -1.35143 -15
      vertex -5.93804 -2.64379 15
      vertex -5.93804 -2.64379 -15
    endloop
  endfacet
  facet normal 0.994522 0.104529 0
    outer loop
      vertex -6.35796 -1.35143 15
      vertex -6.5 0 -15
      vertex -6.5 0 15
    endloop
  endfacet
  facet normal 0.994522 0.104529 0
    outer loop
      vertex -6.5 0 -15
      vertex -6.35796 -1.35143 15
      vertex -6.35796 -1.35143 -15
    endloop
  endfacet
  facet normal 0.743145 0.669131 0
    outer loop
      vertex -4.34935 -4.83044 15
      vertex -5.25861 -3.8206 -15
      vertex -5.25861 -3.8206 15
    endloop
  endfacet
  facet normal 0.743145 0.669131 0
    outer loop
      vertex -5.25861 -3.8206 -15
      vertex -4.34935 -4.83044 15
      vertex -4.34935 -4.83044 -15
    endloop
  endfacet
  facet normal -0.743145 0.669131 0
    outer loop
      vertex 4.34935 -4.83044 -15
      vertex 5.25861 -3.8206 15
      vertex 5.25861 -3.8206 -15
    endloop
  endfacet
  facet normal -0.743145 0.669131 0
    outer loop
      vertex 5.25861 -3.8206 15
      vertex 4.34935 -4.83044 -15
      vertex 4.34935 -4.83044 15
    endloop
  endfacet
  facet normal 0.406736 0.913546 -0
    outer loop
      vertex -2.00861 -6.18187 -15
      vertex -3.25 -5.62916 15
      vertex -2.00861 -6.18187 15
    endloop
  endfacet
  facet normal 0.406736 0.913546 0
    outer loop
      vertex -3.25 -5.62916 15
      vertex -2.00861 -6.18187 -15
      vertex -3.25 -5.62916 -15
    endloop
  endfacet
  facet normal 0.587786 0.809017 -0
    outer loop
      vertex -3.25 -5.62916 -15
      vertex -4.34935 -4.83044 15
      vertex -3.25 -5.62916 15
    endloop
  endfacet
  facet normal 0.587786 0.809017 0
    outer loop
      vertex -4.34935 -4.83044 15
      vertex -3.25 -5.62916 -15
      vertex -4.34935 -4.83044 -15
    endloop
  endfacet
  facet normal 0.207912 0.978148 -0
    outer loop
      vertex -0.679435 -6.46439 -15
      vertex -2.00861 -6.18187 15
      vertex -0.679435 -6.46439 15
    endloop
  endfacet
  facet normal 0.207912 0.978148 0
    outer loop
      vertex -2.00861 -6.18187 15
      vertex -0.679435 -6.46439 -15
      vertex -2.00861 -6.18187 -15
    endloop
  endfacet
endsolid OpenSCAD_Model
